<?xml version="1.0" standalone="no"?>
<!DOCTYPE svg PUBLIC "-//W3C//DTD SVG 20010904//EN"
 "http://www.w3.org/TR/2001/REC-SVG-20010904/DTD/svg10.dtd">
<svg version="1.0" xmlns="http://www.w3.org/2000/svg"
 width="100.000000pt" height="100.000000pt" viewBox="0 0 100.000000 100.000000"
 preserveAspectRatio="xMidYMid meet">

<g transform="translate(0.000000,100.000000) scale(0.100000,-0.100000)"
fill="#000000" stroke="none">
<path d="M758 803 c7 -3 16 -2 19 1 4 3 -2 6 -13 5 -11 0 -14 -3 -6 -6z"/>
<path d="M721 786 c-6 -7 -22 -11 -35 -9 -18 4 -31 -5 -62 -46 l-39 -50 -136
-1 c-172 0 -169 2 -169 -135 l0 -99 -21 23 c-15 16 -27 21 -43 16 -11 -4 -33
-9 -48 -12 -28 -5 -78 -60 -78 -85 0 -23 22 -38 55 -37 30 2 30 2 -5 8 -38 7
-53 36 -28 55 8 6 17 19 21 30 5 13 14 17 32 14 14 -3 30 1 36 8 16 19 35 17
51 -4 7 -10 30 -26 51 -36 29 -13 37 -22 35 -39 -3 -19 -11 -23 -58 -28 -30
-3 -43 -6 -27 -7 19 -2 27 -7 27 -20 0 -11 8 -26 18 -35 16 -15 48 -17 239
-17 200 0 221 2 236 18 14 16 17 43 17 175 l0 157 53 0 c40 0 58 5 70 18 26
28 21 48 -20 80 -44 34 -83 47 -83 27 0 -9 8 -11 21 -8 13 4 27 0 33 -8 6 -8
20 -19 31 -25 24 -14 31 -40 15 -59 -20 -24 -113 -20 -135 5 -15 17 -31 20
-97 20 -79 0 -93 8 -60 32 10 7 21 21 25 31 9 23 36 33 56 20 13 -8 19 -6 28
13 13 27 11 30 -6 10z m39 -136 c18 -18 20 -33 20 -170 0 -204 18 -190 -245
-190 -192 0 -206 1 -225 20 -11 11 -20 25 -20 30 0 16 27 12 34 -5 4 -13 30
-15 153 -13 l148 2 -140 3 c-77 2 -143 7 -148 12 -5 5 -3 18 4 29 10 17 11 25
1 44 -8 15 -12 56 -10 118 3 91 4 94 28 102 23 6 23 7 -5 5 l-30 -2 -3 -103
c-2 -90 -5 -102 -17 -92 -11 9 -15 35 -15 101 0 133 -8 129 245 129 192 0 206
-1 225 -20z"/>
<path d="M438 633 c18 -2 45 -2 60 0 15 2 0 4 -33 4 -33 0 -45 -2 -27 -4z"/>
<path d="M640 631 l95 -6 0 -145 0 -145 -45 -6 -45 -7 50 2 50 1 0 155 0 155
-100 1 -100 1 95 -6z"/>
<path d="M425 548 c-28 -79 -43 -144 -34 -153 6 -6 12 -2 15 13 8 30 60 31 69
2 8 -24 25 -27 25 -3 0 9 -10 47 -22 85 -20 63 -42 86 -53 56z m34 -85 c1 -7
-8 -13 -19 -13 -23 0 -23 0 -9 37 10 26 12 27 19 8 5 -11 9 -26 9 -32z"/>
<path d="M520 481 c0 -79 16 -121 22 -59 2 27 8 34 28 36 35 5 50 20 50 51 0
37 -17 51 -62 51 l-38 0 0 -79z m70 44 c18 -21 5 -45 -25 -45 -20 0 -25 5 -25
23 0 39 26 50 50 22z"/>
<path d="M645 548 c-10 -24 -1 -153 10 -153 13 0 19 145 6 158 -7 7 -12 5 -16
-5z"/>
</g>
</svg>
