<svg class="w-28 h-28 animate-pulse-slow" viewBox="0 0 100 100" fill="none" xmlns="http://www.w3.org/2000/svg">
                        <!-- Cloud base -->
                        <path d="M79.5 43.75C78.9 35.35 72.85 28 64.25 28C62.75 28 61.3 28.3 59.95 28.8C57.6 21.85 51.2 17 43.75 17C33.8 17 25.65 25.15 25.65 35.1C25.65 35.5 25.7 35.9 25.7 36.3C19.45 37.3 15 42.8 15 49.5C15 56.65 20.35 62 27.5 62H72.5C78.85 62 84 56.85 84 50.5C84 44.45 79.25 39.55 73.5 38.55C75.4 39.9 76.7 41.95 77.1 44.3L79.5 43.75Z" fill="#3B82F6"/>
                        
                        <!-- Upper clouds -->
                        <path d="M34.5 31C31.75 31 29.3 32.35 27.6 34.4C26.2 30.8 22.7 28 18.5 28C13.5 28 9.5 32 9.5 37C9.5 37.1 9.5 37.2 9.5 37.3C5.45 38.3 2.5 42 2.5 46.5C2.5 51.75 6.75 56 12 56H34.5C38.6 56 42 52.6 42 48.5C42 44.5 38.75 41.15 34.8 41L34.5 31Z" fill="#93C5FD"/>
                        
                        <path d="M84.5 30C82.2 30 80.1 31.05 78.6 32.65C77.5 30.5 75.15 29 72.5 29C68.9 29 65.85 31.35 64.7 34.55C63.9 34.25 63.05 34 62.15 34C57.55 34 53.75 37.55 53.45 42H77.5C81.65 42 85 38.65 85 34.5C85 32.15 83.95 30.05 82.25 28.65L84.5 30Z" fill="#93C5FD"/>
                        
                        <!-- Deployment arrows -->
                        <path d="M38.5 45.5L42.5 41.5M38.5 45.5L42.5 49.5M38.5 45.5H47.5M61.5 45.5L57.5 41.5M61.5 45.5L57.5 49.5M61.5 45.5H52.5" stroke="white" stroke-width="2" stroke-linecap="round"/>
                    </svg>