                    <svg class="w-28 h-28" viewBox="0 0 100 100" fill="none" xmlns="http://www.w3.org/2000/svg">
                        <!-- Cloud base -->
                        <path d="M72.5 62H27.5C20.35 62 15 56.65 15 49.5C15 42.8 19.45 37.3 25.7 36.3C25.7 35.9 25.65 35.5 25.65 35.1C25.65 25.15 33.8 17 43.75 17C51.2 17 57.6 21.85 59.95 28.8C61.3 28.3 62.75 28 64.25 28C72.85 28 78.9 35.35 79.5 43.75C84 45.8 87 50.4 87 55.5C87 62.1 81.6 67.5 75 67.5H72.5Z" fill="#8B5CF6"/>
                        
                        <!-- Code brackets -->
                        <path d="M35 40L30 45L35 50M45 40L50 45L45 50" stroke="#C4B5FD" stroke-width="4" stroke-linecap="round"/>

                        <!-- Chat bubble -->
                        <path d="M60 35H70C72.5 35 75 37.5 75 40V55C75 57.5 72.5 60 70 60H65L60 65V60C60 57.5 62.5 55 65 55V40C65 37.5 62.5 35 60 35Z" fill="#A78BFA"/>
                        <path d="M65 45H70M65 50H70" stroke="#ECFDF5" stroke-width="2" stroke-linecap="round"/>

                        <!-- Laptop -->
                        <path d="M25 65H55C58 65 60 67 60 70V75H20V70C20 67 22 65 25 65Z" fill="#7C3AED"/>
                        <path d="M30 75H50V80H30V75Z" fill="#5B21B6"/>
                    </svg>